<svg xmlns="http://www.w3.org/2000/svg" viewBox="0 0 512 512">
  <defs>
    <linearGradient id="bg" x1="0" y1="0" x2="1" y2="1"><stop stop-color="#121925"/><stop offset="1" stop-color="#070a10"/></linearGradient>
    <linearGradient id="gold" x1="0" y1="0" x2="1" y2="1"><stop stop-color="#f3d594"/><stop offset="1" stop-color="#b98738"/></linearGradient>
    <filter id="s" x="-30%" y="-30%" width="160%" height="160%"><feDropShadow dx="0" dy="18" stdDeviation="18" flood-opacity=".45"/></filter>
  </defs>
  <rect width="512" height="512" rx="116" fill="url(#bg)"/>
  <circle cx="390" cy="118" r="78" fill="#76d5de" opacity=".08"/>
  <circle cx="120" cy="402" r="100" fill="#d8b36a" opacity=".07"/>
  <g filter="url(#s)">
    <rect x="124" y="88" width="272" height="336" rx="30" fill="#f8fafc"/>
    <rect x="154" y="126" width="126" height="20" rx="10" fill="#1b2532"/>
    <rect x="154" y="164" width="202" height="12" rx="6" fill="#aeb7c1"/>
    <rect x="154" y="194" width="166" height="12" rx="6" fill="#c4cbd3"/>
    <g fill="none" stroke="#26313e" stroke-width="11" stroke-linecap="round">
      <path d="M166 252h28M166 302h28M166 352h28"/>
      <path d="M226 252h122M226 302h122M226 352h90" opacity=".65"/>
    </g>
    <g fill="url(#gold)">
      <rect x="153" y="238" width="54" height="28" rx="8"/>
      <rect x="153" y="288" width="54" height="28" rx="8"/>
      <rect x="153" y="338" width="54" height="28" rx="8"/>
    </g>
  </g>
  <path d="M390 224l13 29 29 13-29 13-13 29-13-29-29-13 29-13z" fill="url(#gold)"/>
  <path d="M92 176l8 18 18 8-18 8-8 18-8-18-18-8 18-8z" fill="#76d5de"/>
</svg>
